<?xml version="1.0" encoding="UTF-8" standalone="no"?>
<!DOCTYPE svg PUBLIC "-//W3C//DTD SVG 1.1//EN"
 "http://www.w3.org/Graphics/SVG/1.1/DTD/svg11.dtd">
<!-- Generated by graphviz version 2.47.1 (20210417.1919)
 -->
<!-- Pages: 1 -->
<svg width="2667pt" height="1035pt"
 viewBox="0.00 0.00 2666.96 1034.59" xmlns="http://www.w3.org/2000/svg" xmlns:xlink="http://www.w3.org/1999/xlink">
<g id="graph0" class="graph" transform="scale(1 1) rotate(0) translate(4 1030.59)">
<polygon fill="white" stroke="transparent" points="-4,4 -4,-1030.59 2662.96,-1030.59 2662.96,4 -4,4"/>
<g id="clust1" class="cluster">
<title>cluster&#45;nid&#45;02</title>
<polygon fill="none" stroke="#cccccc" points="807.94,-948.59 807.94,-1018.59 1265.39,-1018.59 1265.39,-948.59 807.94,-948.59"/>
</g>
<g id="clust2" class="cluster">
<title>cluster&#45;nid&#45;03</title>
<polygon fill="none" stroke="#cccccc" points="807.94,-870.59 807.94,-940.59 1265.39,-940.59 1265.39,-870.59 807.94,-870.59"/>
</g>
<g id="clust5" class="cluster">
<title>cluster&#45;nid&#45;06</title>
<polygon fill="none" stroke="#cccccc" points="8,-913.59 8,-983.59 154.11,-983.59 154.11,-913.59 8,-913.59"/>
</g>
<g id="clust7" class="cluster">
<title>cluster&#45;nid&#45;08</title>
<polygon fill="none" stroke="#cccccc" points="1913.32,-371.59 1913.32,-441.59 2333.52,-441.59 2333.52,-371.59 1913.32,-371.59"/>
</g>
<g id="clust8" class="cluster">
<title>cluster&#45;nid&#45;09</title>
<polygon fill="none" stroke="#cccccc" points="1913.32,-233.59 1913.32,-303.59 2333.52,-303.59 2333.52,-233.59 1913.32,-233.59"/>
</g>
<g id="clust10" class="cluster">
<title>cluster&#45;nid&#45;0b</title>
<polygon fill="none" stroke="#cccccc" points="762.11,-398.59 762.11,-716.59 1280.03,-716.59 1280.03,-398.59 762.11,-398.59"/>
</g>
<g id="clust11" class="cluster">
<title>cluster&#45;nid&#45;0c</title>
<polygon fill="none" stroke="#cccccc" points="1518.89,-690.59 1518.89,-816.59 1997.96,-816.59 1997.96,-690.59 1518.89,-690.59"/>
</g>
<g id="clust12" class="cluster">
<title>cluster&#45;nid&#45;0d</title>
<polygon fill="none" stroke="#cccccc" points="1518.89,-556.59 1518.89,-682.59 1997.96,-682.59 1997.96,-556.59 1518.89,-556.59"/>
</g>
<g id="clust14" class="cluster">
<title>cluster&#45;nid&#45;0f</title>
<polygon fill="none" stroke="#cccccc" points="1518.89,-878.59 1518.89,-1004.59 1997.14,-1004.59 1997.14,-878.59 1518.89,-878.59"/>
</g>
<g id="clust18" class="cluster">
<title>cluster&#45;nid&#45;12&#45;out</title>
<polygon fill="none" stroke="#cccccc" points="1151.39,-36.59 1151.39,-120.59 1309.39,-120.59 1309.39,-36.59 1151.39,-36.59"/>
</g>
<g id="clust20" class="cluster">
<title>cluster&#45;nid&#45;13&#45;out</title>
<polygon fill="none" stroke="#cccccc" points="1141.89,-160.59 1141.89,-244.59 1318.89,-244.59 1318.89,-160.59 1141.89,-160.59"/>
</g>
<g id="clust21" class="cluster">
<title>cluster&#45;nid&#45;14&#45;in</title>
<polygon fill="none" stroke="#cccccc" points="2199.96,-751.59 2199.96,-835.59 2378.96,-835.59 2378.96,-751.59 2199.96,-751.59"/>
</g>
<g id="clust23" class="cluster">
<title>cluster&#45;nid&#45;15&#45;in</title>
<polygon fill="none" stroke="#cccccc" points="2199.96,-659.59 2199.96,-743.59 2378.96,-743.59 2378.96,-659.59 2199.96,-659.59"/>
</g>
<g id="clust25" class="cluster">
<title>cluster&#45;nid&#45;16&#45;in</title>
<polygon fill="none" stroke="#cccccc" points="2197.96,-567.59 2197.96,-651.59 2380.96,-651.59 2380.96,-567.59 2197.96,-567.59"/>
</g>
<g id="clust28" class="cluster">
<title>cluster&#45;nid&#45;18&#45;in</title>
<polygon fill="none" stroke="#cccccc" points="2208.96,-475.59 2208.96,-559.59 2650.96,-559.59 2650.96,-475.59 2208.96,-475.59"/>
</g>
<g id="clust29" class="cluster">
<title>cluster&#45;nid&#45;18&#45;out</title>
<polygon fill="none" stroke="#cccccc" points="46.05,-686.59 46.05,-770.59 538.61,-770.59 538.61,-686.59 46.05,-686.59"/>
</g>
<g id="clust31" class="cluster">
<title>cluster&#45;nid&#45;19&#45;out</title>
<polygon fill="none" stroke="#cccccc" points="379.61,-168.59 379.61,-252.59 536.61,-252.59 536.61,-168.59 379.61,-168.59"/>
</g>
<g id="clust33" class="cluster">
<title>cluster&#45;nid&#45;1a&#45;out</title>
<polygon fill="none" stroke="#cccccc" points="369.61,-352.59 369.61,-436.59 546.61,-436.59 546.61,-352.59 369.61,-352.59"/>
</g>
<g id="clust34" class="cluster">
<title>cluster&#45;nid&#45;1b&#45;in</title>
<polygon fill="none" stroke="#cccccc" points="2200.96,-843.59 2200.96,-927.59 2650.96,-927.59 2650.96,-843.59 2200.96,-843.59"/>
</g>
<g id="clust35" class="cluster">
<title>cluster&#45;nid&#45;1b&#45;out</title>
<polygon fill="none" stroke="#cccccc" points="46.05,-260.59 46.05,-344.59 546.61,-344.59 546.61,-260.59 46.05,-260.59"/>
</g>
<g id="clust38" class="cluster">
<title>cluster&#45;nid&#45;1d&#45;out</title>
<polygon fill="none" stroke="#cccccc" points="354.11,-778.59 354.11,-862.59 562.11,-862.59 562.11,-778.59 354.11,-778.59"/>
</g>
<g id="clust39" class="cluster">
<title>cluster&#45;nid&#45;1e&#45;in</title>
<polygon fill="none" stroke="#cccccc" points="369.61,-906.59 369.61,-990.59 546.61,-990.59 546.61,-906.59 369.61,-906.59"/>
</g>
<g id="clust44" class="cluster">
<title>cluster&#45;nid&#45;22</title>
<polygon fill="none" stroke="#cccccc" points="1547.91,-222.59 1547.91,-314.59 1669.66,-314.59 1669.66,-222.59 1547.91,-222.59"/>
</g>
<g id="clust45" class="cluster">
<title>cluster&#45;nid&#45;23</title>
<polygon fill="none" stroke="#cccccc" points="1547.91,-360.59 1547.91,-452.59 1669.66,-452.59 1669.66,-360.59 1547.91,-360.59"/>
</g>
<!-- nid&#45;02 -->
<g id="node1" class="node">
<title>nid&#45;02</title>
<ellipse fill="none" stroke="blue" cx="852" cy="-983.59" rx="36.12" ry="26.74"/>
<text text-anchor="middle" x="852" y="-987.39" font-family="Times,serif" font-size="14.00">0x02</text>
<text text-anchor="middle" x="852" y="-972.39" font-family="Times,serif" font-size="14.00">Stereo</text>
</g>
<!-- nid&#45;02&#45;ampout -->
<g id="node2" class="node">
<title>nid&#45;02&#45;ampout</title>
<polygon fill="none" stroke="#0000ff" points="1257.39,-978.59 1216.89,-996.59 1216.89,-960.59 1257.39,-978.59"/>
</g>
<!-- nid&#45;02&#45;&gt;nid&#45;02&#45;ampout -->
<g id="edge1" class="edge">
<title>nid&#45;02&#45;&gt;nid&#45;02&#45;ampout</title>
<path fill="none" stroke="#0000ff" d="M888.07,-983.12C966.39,-982.08 1153.22,-979.6 1211.63,-978.83"/>
<polygon fill="#0000ff" stroke="#0000ff" points="1211.9,-980.57 1216.87,-978.76 1211.85,-977.07 1211.9,-980.57"/>
</g>
<!-- nid&#45;0c&#45;ampin&#45;2 -->
<g id="node24" class="node">
<title>nid&#45;0c&#45;ampin&#45;2</title>
<polygon fill="none" stroke="#0000ff" points="1690.57,-785.59 1567.89,-808.59 1567.89,-762.59 1690.57,-785.59"/>
<text text-anchor="middle" x="1608.79" y="-781.89" font-family="Times,serif" font-size="14.00">0 (0x02)</text>
</g>
<!-- nid&#45;02&#45;ampout&#45;&gt;nid&#45;0c&#45;ampin&#45;2 -->
<g id="edge19" class="edge">
<title>nid&#45;02&#45;ampout&#45;&gt;nid&#45;0c&#45;ampin&#45;2</title>
<path fill="none" stroke="#333333" d="M1246.19,-973.52C1263.8,-967.33 1293.94,-956.24 1318.89,-944.59 1407.03,-903.43 1505.43,-846.87 1561.65,-813.48"/>
<polygon fill="#333333" stroke="#333333" points="1563.5,-816.45 1570.3,-808.32 1559.92,-810.43 1563.5,-816.45"/>
</g>
<!-- nid&#45;0f&#45;ampin&#45;2 -->
<g id="node30" class="node">
<title>nid&#45;0f&#45;ampin&#45;2</title>
<polygon fill="none" stroke="#c8c8c8" points="1690.57,-973.59 1567.89,-996.59 1567.89,-950.59 1690.57,-973.59"/>
<text text-anchor="middle" x="1608.79" y="-969.89" font-family="Times,serif" font-size="14.00">0 (0x02)</text>
</g>
<!-- nid&#45;02&#45;ampout&#45;&gt;nid&#45;0f&#45;ampin&#45;2 -->
<g id="edge27" class="edge">
<title>nid&#45;02&#45;ampout&#45;&gt;nid&#45;0f&#45;ampin&#45;2</title>
<path fill="none" stroke="#333333" d="M1256.67,-978.25C1318.16,-977.44 1476.44,-975.33 1557.83,-974.25"/>
<polygon fill="#333333" stroke="#333333" points="1557.88,-977.75 1567.83,-974.12 1557.79,-970.75 1557.88,-977.75"/>
</g>
<!-- nid&#45;03 -->
<g id="node3" class="node">
<title>nid&#45;03</title>
<ellipse fill="none" stroke="blue" cx="852" cy="-905.59" rx="36.12" ry="26.74"/>
<text text-anchor="middle" x="852" y="-909.39" font-family="Times,serif" font-size="14.00">0x03</text>
<text text-anchor="middle" x="852" y="-894.39" font-family="Times,serif" font-size="14.00">Stereo</text>
</g>
<!-- nid&#45;03&#45;ampout -->
<g id="node4" class="node">
<title>nid&#45;03&#45;ampout</title>
<polygon fill="none" stroke="#0000ff" points="1257.39,-905.59 1216.89,-923.59 1216.89,-887.59 1257.39,-905.59"/>
</g>
<!-- nid&#45;03&#45;&gt;nid&#45;03&#45;ampout -->
<g id="edge2" class="edge">
<title>nid&#45;03&#45;&gt;nid&#45;03&#45;ampout</title>
<path fill="none" stroke="#0000ff" d="M888.07,-905.59C966.39,-905.59 1153.22,-905.59 1211.63,-905.59"/>
<polygon fill="#0000ff" stroke="#0000ff" points="1211.87,-907.34 1216.87,-905.59 1211.87,-903.84 1211.87,-907.34"/>
</g>
<!-- nid&#45;0d&#45;ampin&#45;3 -->
<g id="node27" class="node">
<title>nid&#45;0d&#45;ampin&#45;3</title>
<polygon fill="none" stroke="#0000ff" points="1690.57,-651.59 1567.89,-674.59 1567.89,-628.59 1690.57,-651.59"/>
<text text-anchor="middle" x="1608.79" y="-647.89" font-family="Times,serif" font-size="14.00">0 (0x03)</text>
</g>
<!-- nid&#45;03&#45;ampout&#45;&gt;nid&#45;0d&#45;ampin&#45;3 -->
<g id="edge23" class="edge">
<title>nid&#45;03&#45;ampout&#45;&gt;nid&#45;0d&#45;ampin&#45;3</title>
<path fill="none" stroke="#333333" d="M1245.69,-900.37C1263.58,-893.52 1294.8,-880.47 1318.89,-864.59 1418.25,-799.11 1417.52,-748.91 1518.89,-686.59 1531.06,-679.11 1545.1,-672.7 1558.37,-667.49"/>
<polygon fill="#333333" stroke="#333333" points="1559.74,-670.72 1567.86,-663.91 1557.27,-664.17 1559.74,-670.72"/>
</g>
<!-- nid&#45;0f&#45;ampin&#45;3 -->
<g id="node31" class="node">
<title>nid&#45;0f&#45;ampin&#45;3</title>
<polygon fill="none" stroke="#0000ff" points="1690.57,-909.59 1567.89,-932.59 1567.89,-886.59 1690.57,-909.59"/>
<text text-anchor="middle" x="1608.79" y="-905.89" font-family="Times,serif" font-size="14.00">1 (0x03)</text>
</g>
<!-- nid&#45;03&#45;ampout&#45;&gt;nid&#45;0f&#45;ampin&#45;3 -->
<g id="edge28" class="edge">
<title>nid&#45;03&#45;ampout&#45;&gt;nid&#45;0f&#45;ampin&#45;3</title>
<path fill="none" stroke="#333333" d="M1256.97,-905.86C1318.61,-906.52 1476.3,-908.19 1557.62,-909.06"/>
<polygon fill="#333333" stroke="#333333" points="1557.58,-912.56 1567.62,-909.16 1557.66,-905.56 1557.58,-912.56"/>
</g>
<!-- nid&#45;06 -->
<g id="node5" class="node">
<title>nid&#45;06</title>
<ellipse fill="none" stroke="blue" cx="81.05" cy="-948.59" rx="65.11" ry="26.74"/>
<text text-anchor="middle" x="81.05" y="-952.39" font-family="Times,serif" font-size="14.00">0x06</text>
<text text-anchor="middle" x="81.05" y="-937.39" font-family="Times,serif" font-size="14.00">Stereo Digital</text>
</g>
<!-- nid&#45;1e&#45;in -->
<g id="node43" class="node">
<title>nid&#45;1e&#45;in</title>
<polygon fill="none" stroke="green" points="538.61,-982.59 377.61,-982.59 377.61,-914.59 538.61,-914.59 538.61,-982.59"/>
<text text-anchor="middle" x="458.11" y="-967.39" font-family="Times,serif" font-size="14.00">0x1e</text>
<text text-anchor="middle" x="458.11" y="-952.39" font-family="Times,serif" font-size="14.00">[N/A] Speaker at Ext Rear</text>
<text text-anchor="middle" x="458.11" y="-937.39" font-family="Times,serif" font-size="14.00">Stereo Digital</text>
<text text-anchor="middle" x="458.11" y="-922.39" font-family="Times,serif" font-size="14.00">OUT Detect</text>
</g>
<!-- nid&#45;06&#45;&gt;nid&#45;1e&#45;in -->
<g id="edge43" class="edge">
<title>nid&#45;06&#45;&gt;nid&#45;1e&#45;in</title>
<path fill="none" stroke="#333333" d="M146.53,-948.59C207.39,-948.59 299.21,-948.59 367.24,-948.59"/>
<polygon fill="#333333" stroke="#333333" points="367.52,-952.09 377.52,-948.59 367.52,-945.09 367.52,-952.09"/>
</g>
<!-- nid&#45;08 -->
<g id="node6" class="node">
<title>nid&#45;08</title>
<ellipse fill="none" stroke="red" cx="2289.46" cy="-406.59" rx="36.12" ry="26.74"/>
<text text-anchor="middle" x="2289.46" y="-410.39" font-family="Times,serif" font-size="14.00">0x08</text>
<text text-anchor="middle" x="2289.46" y="-395.39" font-family="Times,serif" font-size="14.00">Stereo</text>
</g>
<!-- nid&#45;08&#45;ampin -->
<g id="node7" class="node">
<title>nid&#45;08&#45;ampin</title>
<polygon fill="none" stroke="#c8c8c8" points="1975.32,-406.59 1934.82,-424.59 1934.82,-388.59 1975.32,-406.59"/>
</g>
<!-- nid&#45;08&#45;ampin&#45;&gt;nid&#45;08 -->
<g id="edge3" class="edge">
<title>nid&#45;08&#45;ampin&#45;&gt;nid&#45;08</title>
<path fill="none" stroke="#c8c8c8" d="M1975.37,-406.59C2034.17,-406.59 2177.56,-406.59 2248.03,-406.59"/>
<polygon fill="#c8c8c8" stroke="#c8c8c8" points="2248.38,-408.34 2253.38,-406.59 2248.38,-404.84 2248.38,-408.34"/>
</g>
<!-- nid&#45;23 -->
<g id="node8" class="node">
<title>nid&#45;23</title>
<polygon fill="none" stroke="black" points="1661.53,-444.59 1577.62,-444.59 1556.04,-368.59 1639.95,-368.59 1661.53,-444.59"/>
<text text-anchor="middle" x="1608.79" y="-410.39" font-family="Times,serif" font-size="14.00">0x23</text>
<text text-anchor="middle" x="1608.79" y="-395.39" font-family="Times,serif" font-size="14.00">Stereo</text>
</g>
<!-- nid&#45;23&#45;&gt;nid&#45;08&#45;ampin -->
<g id="edge4" class="edge">
<title>nid&#45;23&#45;&gt;nid&#45;08&#45;ampin</title>
<path fill="none" stroke="#333333" d="M1650.84,-406.59C1722.5,-406.59 1868.15,-406.59 1924.42,-406.59"/>
<polygon fill="#333333" stroke="#333333" points="1924.72,-410.09 1934.72,-406.59 1924.72,-403.09 1924.72,-410.09"/>
</g>
<!-- nid&#45;09 -->
<g id="node9" class="node">
<title>nid&#45;09</title>
<ellipse fill="none" stroke="red" cx="2289.46" cy="-268.59" rx="36.12" ry="26.74"/>
<text text-anchor="middle" x="2289.46" y="-272.39" font-family="Times,serif" font-size="14.00">0x09</text>
<text text-anchor="middle" x="2289.46" y="-257.39" font-family="Times,serif" font-size="14.00">Stereo</text>
</g>
<!-- nid&#45;09&#45;ampin -->
<g id="node10" class="node">
<title>nid&#45;09&#45;ampin</title>
<polygon fill="none" stroke="#2f2ff1" points="1975.32,-268.59 1934.82,-286.59 1934.82,-250.59 1975.32,-268.59"/>
</g>
<!-- nid&#45;09&#45;ampin&#45;&gt;nid&#45;09 -->
<g id="edge5" class="edge">
<title>nid&#45;09&#45;ampin&#45;&gt;nid&#45;09</title>
<path fill="none" stroke="#2f2ff1" d="M1975.37,-268.59C2034.17,-268.59 2177.56,-268.59 2248.03,-268.59"/>
<polygon fill="#2f2ff1" stroke="#2f2ff1" points="2248.38,-270.34 2253.38,-268.59 2248.38,-266.84 2248.38,-270.34"/>
</g>
<!-- nid&#45;22 -->
<g id="node11" class="node">
<title>nid&#45;22</title>
<polygon fill="none" stroke="black" points="1661.53,-306.59 1577.62,-306.59 1556.04,-230.59 1639.95,-230.59 1661.53,-306.59"/>
<text text-anchor="middle" x="1608.79" y="-272.39" font-family="Times,serif" font-size="14.00">0x22</text>
<text text-anchor="middle" x="1608.79" y="-257.39" font-family="Times,serif" font-size="14.00">Stereo</text>
</g>
<!-- nid&#45;22&#45;&gt;nid&#45;09&#45;ampin -->
<g id="edge6" class="edge">
<title>nid&#45;22&#45;&gt;nid&#45;09&#45;ampin</title>
<path fill="none" stroke="#333333" d="M1650.84,-268.59C1722.5,-268.59 1868.15,-268.59 1924.42,-268.59"/>
<polygon fill="#333333" stroke="#333333" points="1924.72,-272.09 1934.72,-268.59 1924.72,-265.09 1924.72,-272.09"/>
</g>
<!-- nid&#45;0b -->
<g id="node12" class="node">
<title>nid&#45;0b</title>
<polygon fill="none" stroke="black" points="1272.18,-557.59 1251.28,-588.64 1209.5,-588.64 1188.61,-557.59 1209.5,-526.54 1251.28,-526.54 1272.18,-557.59"/>
<text text-anchor="middle" x="1230.39" y="-561.39" font-family="Times,serif" font-size="14.00">0x0b</text>
<text text-anchor="middle" x="1230.39" y="-546.39" font-family="Times,serif" font-size="14.00">Stereo</text>
</g>
<!-- nid&#45;0b&#45;&gt;nid&#45;23 -->
<g id="edge57" class="edge">
<title>nid&#45;0b&#45;&gt;nid&#45;23</title>
<path fill="none" stroke="gray" stroke-dasharray="5,2" d="M1263.81,-544.58C1330.67,-517.76 1484.09,-456.21 1561.42,-425.19"/>
<polygon fill="gray" stroke="gray" points="1562.94,-428.35 1570.91,-421.38 1560.33,-421.86 1562.94,-428.35"/>
</g>
<!-- nid&#45;0b&#45;&gt;nid&#45;22 -->
<g id="edge49" class="edge">
<title>nid&#45;0b&#45;&gt;nid&#45;22</title>
<path fill="none" stroke="gray" stroke-dasharray="5,2" d="M1258.46,-536.81C1323.35,-486.98 1488.15,-360.45 1565.93,-300.73"/>
<polygon fill="gray" stroke="gray" points="1568.28,-303.34 1574.08,-294.47 1564.01,-297.78 1568.28,-303.34"/>
</g>
<!-- nid&#45;0c&#45;ampin&#45;11 -->
<g id="node25" class="node">
<title>nid&#45;0c&#45;ampin&#45;11</title>
<polygon fill="none" stroke="#c8c8c8" points="1690.57,-721.59 1567.89,-744.59 1567.89,-698.59 1690.57,-721.59"/>
<text text-anchor="middle" x="1608.79" y="-717.89" font-family="Times,serif" font-size="14.00">1 (0x0b)</text>
</g>
<!-- nid&#45;0b&#45;&gt;nid&#45;0c&#45;ampin&#45;11 -->
<g id="edge20" class="edge">
<title>nid&#45;0b&#45;&gt;nid&#45;0c&#45;ampin&#45;11</title>
<path fill="none" stroke="#333333" d="M1262.66,-572.2C1315.25,-596.63 1424.86,-647 1518.89,-686.59 1531.56,-691.92 1545.34,-697.47 1558.19,-702.54"/>
<polygon fill="#333333" stroke="#333333" points="1557.21,-705.91 1567.8,-706.3 1559.77,-699.39 1557.21,-705.91"/>
</g>
<!-- nid&#45;0d&#45;ampin&#45;11 -->
<g id="node28" class="node">
<title>nid&#45;0d&#45;ampin&#45;11</title>
<polygon fill="none" stroke="#c8c8c8" points="1690.57,-587.59 1567.89,-610.59 1567.89,-564.59 1690.57,-587.59"/>
<text text-anchor="middle" x="1608.79" y="-583.89" font-family="Times,serif" font-size="14.00">1 (0x0b)</text>
</g>
<!-- nid&#45;0b&#45;&gt;nid&#45;0d&#45;ampin&#45;11 -->
<g id="edge24" class="edge">
<title>nid&#45;0b&#45;&gt;nid&#45;0d&#45;ampin&#45;11</title>
<path fill="none" stroke="#333333" d="M1270.26,-560.69C1338.87,-566.16 1481.41,-577.52 1557.45,-583.58"/>
<polygon fill="#333333" stroke="#333333" points="1557.47,-587.09 1567.72,-584.4 1558.03,-580.11 1557.47,-587.09"/>
</g>
<!-- nid&#45;0b&#45;ampin&#45;24 -->
<g id="node13" class="node">
<title>nid&#45;0b&#45;ampin&#45;24</title>
<polygon fill="none" stroke="#c8c8c8" points="933.79,-621.59 811.11,-644.59 811.11,-598.59 933.79,-621.59"/>
<text text-anchor="middle" x="852" y="-617.89" font-family="Times,serif" font-size="14.00">0 (0x18)</text>
</g>
<!-- nid&#45;0b&#45;ampin&#45;24&#45;&gt;nid&#45;0b -->
<g id="edge7" class="edge">
<title>nid&#45;0b&#45;ampin&#45;24&#45;&gt;nid&#45;0b</title>
<path fill="none" stroke="#c8c8c8" d="M895.45,-614.37C968.11,-602.02 1115.45,-576.96 1187.64,-564.69"/>
<polygon fill="#c8c8c8" stroke="#c8c8c8" points="1188.07,-566.39 1192.7,-563.83 1187.48,-562.94 1188.07,-566.39"/>
</g>
<!-- nid&#45;0b&#45;ampin&#45;25 -->
<g id="node14" class="node">
<title>nid&#45;0b&#45;ampin&#45;25</title>
<polygon fill="none" stroke="#c8c8c8" points="933.79,-429.59 811.11,-452.59 811.11,-406.59 933.79,-429.59"/>
<text text-anchor="middle" x="852" y="-425.89" font-family="Times,serif" font-size="14.00">1 (0x19)</text>
</g>
<!-- nid&#45;0b&#45;ampin&#45;25&#45;&gt;nid&#45;0b -->
<g id="edge8" class="edge">
<title>nid&#45;0b&#45;ampin&#45;25&#45;&gt;nid&#45;0b</title>
<path fill="none" stroke="#c8c8c8" d="M881.91,-439.42C949.12,-462.28 1115.88,-518.99 1191.29,-544.63"/>
<polygon fill="#c8c8c8" stroke="#c8c8c8" points="1190.83,-546.32 1196.12,-546.28 1191.95,-543.01 1190.83,-546.32"/>
</g>
<!-- nid&#45;0b&#45;ampin&#45;26 -->
<g id="node15" class="node">
<title>nid&#45;0b&#45;ampin&#45;26</title>
<polygon fill="none" stroke="#c8c8c8" points="932.69,-557.59 811.66,-580.59 811.66,-534.59 932.69,-557.59"/>
<text text-anchor="middle" x="852" y="-553.89" font-family="Times,serif" font-size="14.00">2 (0x1a)</text>
</g>
<!-- nid&#45;0b&#45;ampin&#45;26&#45;&gt;nid&#45;0b -->
<g id="edge9" class="edge">
<title>nid&#45;0b&#45;ampin&#45;26&#45;&gt;nid&#45;0b</title>
<path fill="none" stroke="#c8c8c8" d="M932.82,-557.59C1009.02,-557.59 1121.16,-557.59 1183.43,-557.59"/>
<polygon fill="#c8c8c8" stroke="#c8c8c8" points="1183.56,-559.34 1188.56,-557.59 1183.56,-555.84 1183.56,-559.34"/>
</g>
<!-- nid&#45;0b&#45;ampin&#45;27 -->
<g id="node16" class="node">
<title>nid&#45;0b&#45;ampin&#45;27</title>
<polygon fill="none" stroke="#c8c8c8" points="933.79,-493.59 811.11,-516.59 811.11,-470.59 933.79,-493.59"/>
<text text-anchor="middle" x="852" y="-489.89" font-family="Times,serif" font-size="14.00">3 (0x1b)</text>
</g>
<!-- nid&#45;0b&#45;ampin&#45;27&#45;&gt;nid&#45;0b -->
<g id="edge10" class="edge">
<title>nid&#45;0b&#45;ampin&#45;27&#45;&gt;nid&#45;0b</title>
<path fill="none" stroke="#c8c8c8" d="M895.45,-500.81C968.11,-513.16 1115.45,-538.22 1187.64,-550.49"/>
<polygon fill="#c8c8c8" stroke="#c8c8c8" points="1187.48,-552.24 1192.7,-551.35 1188.07,-548.79 1187.48,-552.24"/>
</g>
<!-- nid&#45;0b&#45;ampin&#45;29 -->
<g id="node17" class="node">
<title>nid&#45;0b&#45;ampin&#45;29</title>
<polygon fill="none" stroke="#c8c8c8" points="933.79,-685.59 811.11,-708.59 811.11,-662.59 933.79,-685.59"/>
<text text-anchor="middle" x="852" y="-681.89" font-family="Times,serif" font-size="14.00">4 (0x1d)</text>
</g>
<!-- nid&#45;0b&#45;ampin&#45;29&#45;&gt;nid&#45;0b -->
<g id="edge11" class="edge">
<title>nid&#45;0b&#45;ampin&#45;29&#45;&gt;nid&#45;0b</title>
<path fill="none" stroke="#c8c8c8" d="M881.91,-675.76C949.12,-652.9 1115.88,-596.19 1191.29,-570.55"/>
<polygon fill="#c8c8c8" stroke="#c8c8c8" points="1191.95,-572.17 1196.12,-568.9 1190.83,-568.86 1191.95,-572.17"/>
</g>
<!-- nid&#45;18&#45;out -->
<g id="node18" class="node">
<title>nid&#45;18&#45;out</title>
<polygon fill="none" stroke="green" points="530.61,-762.59 385.61,-762.59 385.61,-694.59 530.61,-694.59 530.61,-762.59"/>
<text text-anchor="middle" x="458.11" y="-747.39" font-family="Times,serif" font-size="14.00">0x18</text>
<text text-anchor="middle" x="458.11" y="-732.39" font-family="Times,serif" font-size="14.00">[Jack] Mic at Ext Front</text>
<text text-anchor="middle" x="458.11" y="-717.39" font-family="Times,serif" font-size="14.00">Stereo</text>
<text text-anchor="middle" x="458.11" y="-702.39" font-family="Times,serif" font-size="14.00">IN OUT Detect</text>
</g>
<!-- nid&#45;18&#45;out&#45;&gt;nid&#45;23 -->
<g id="edge52" class="edge">
<title>nid&#45;18&#45;out&#45;&gt;nid&#45;23</title>
<path fill="none" stroke="#333333" d="M530.82,-750.86C684.07,-794.23 1051.26,-875.32 1318.89,-750.59 1387.13,-718.79 1516.76,-539.29 1576.37,-452.96"/>
<polygon fill="#333333" stroke="#333333" points="1579.3,-454.88 1582.09,-444.66 1573.53,-450.91 1579.3,-454.88"/>
</g>
<!-- nid&#45;18&#45;out&#45;&gt;nid&#45;22 -->
<g id="edge44" class="edge">
<title>nid&#45;18&#45;out&#45;&gt;nid&#45;22</title>
<path fill="none" stroke="gray" stroke-dasharray="5,2" d="M530.73,-732.02C725.05,-740.76 1252.19,-760.47 1318.89,-720.59 1477.33,-625.87 1407.71,-503.94 1518.89,-356.59 1532.94,-337.97 1550.86,-319.48 1566.91,-304.29"/>
<polygon fill="gray" stroke="gray" points="1569.69,-306.49 1574.62,-297.11 1564.92,-301.37 1569.69,-306.49"/>
</g>
<!-- nid&#45;18&#45;out&#45;&gt;nid&#45;0b&#45;ampin&#45;24 -->
<g id="edge12" class="edge">
<title>nid&#45;18&#45;out&#45;&gt;nid&#45;0b&#45;ampin&#45;24</title>
<path fill="none" stroke="#333333" d="M530.99,-708.96C609.44,-687.54 732.97,-653.82 801.33,-635.15"/>
<polygon fill="#333333" stroke="#333333" points="802.28,-638.52 811.01,-632.51 800.44,-631.77 802.28,-638.52"/>
</g>
<!-- nid&#45;19&#45;out -->
<g id="node19" class="node">
<title>nid&#45;19&#45;out</title>
<polygon fill="none" stroke="green" points="528.61,-244.59 387.61,-244.59 387.61,-176.59 528.61,-176.59 528.61,-244.59"/>
<text text-anchor="middle" x="458.11" y="-229.39" font-family="Times,serif" font-size="14.00">0x19</text>
<text text-anchor="middle" x="458.11" y="-214.39" font-family="Times,serif" font-size="14.00">[Jack] Mic at Ext Rear</text>
<text text-anchor="middle" x="458.11" y="-199.39" font-family="Times,serif" font-size="14.00">Stereo</text>
<text text-anchor="middle" x="458.11" y="-184.39" font-family="Times,serif" font-size="14.00">IN Detect</text>
</g>
<!-- nid&#45;19&#45;out&#45;&gt;nid&#45;23 -->
<g id="edge53" class="edge">
<title>nid&#45;19&#45;out&#45;&gt;nid&#45;23</title>
<path fill="none" stroke="gray" stroke-dasharray="5,2" d="M528.8,-222.48C739.65,-258.46 1367.68,-365.62 1554.68,-397.53"/>
<polygon fill="gray" stroke="gray" points="1554.1,-400.98 1564.55,-399.21 1555.28,-394.08 1554.1,-400.98"/>
</g>
<!-- nid&#45;19&#45;out&#45;&gt;nid&#45;22 -->
<g id="edge45" class="edge">
<title>nid&#45;19&#45;out&#45;&gt;nid&#45;22</title>
<path fill="none" stroke="gray" stroke-dasharray="5,2" d="M518.76,-176.51C660.76,-100 1028.68,70.88 1318.89,-32.59 1424.64,-70.29 1519.64,-165.14 1569.96,-222.46"/>
<polygon fill="gray" stroke="gray" points="1567.56,-225.04 1576.76,-230.29 1572.84,-220.45 1567.56,-225.04"/>
</g>
<!-- nid&#45;19&#45;out&#45;&gt;nid&#45;0b&#45;ampin&#45;25 -->
<g id="edge13" class="edge">
<title>nid&#45;19&#45;out&#45;&gt;nid&#45;0b&#45;ampin&#45;25</title>
<path fill="none" stroke="#333333" d="M528.63,-240.27C539.93,-245.49 551.42,-251.03 562.11,-256.59 652.44,-303.59 753.59,-366.72 809.02,-402.27"/>
<polygon fill="#333333" stroke="#333333" points="807.21,-405.27 817.51,-407.74 810.99,-399.38 807.21,-405.27"/>
</g>
<!-- nid&#45;1a&#45;out -->
<g id="node20" class="node">
<title>nid&#45;1a&#45;out</title>
<polygon fill="none" stroke="green" points="538.61,-428.59 377.61,-428.59 377.61,-360.59 538.61,-360.59 538.61,-428.59"/>
<text text-anchor="middle" x="458.11" y="-413.39" font-family="Times,serif" font-size="14.00">0x1a</text>
<text text-anchor="middle" x="458.11" y="-398.39" font-family="Times,serif" font-size="14.00">[N/A] Speaker at Ext Rear</text>
<text text-anchor="middle" x="458.11" y="-383.39" font-family="Times,serif" font-size="14.00">Stereo</text>
<text text-anchor="middle" x="458.11" y="-368.39" font-family="Times,serif" font-size="14.00">IN Detect</text>
</g>
<!-- nid&#45;1a&#45;out&#45;&gt;nid&#45;23 -->
<g id="edge54" class="edge">
<title>nid&#45;1a&#45;out&#45;&gt;nid&#45;23</title>
<path fill="none" stroke="gray" stroke-dasharray="5,2" d="M538.83,-393.48C690.67,-391.63 1031.8,-388.63 1318.89,-394.59 1401.81,-396.31 1498.03,-400.81 1555.84,-403.78"/>
<polygon fill="gray" stroke="gray" points="1556.01,-407.3 1566.18,-404.32 1556.38,-400.3 1556.01,-407.3"/>
</g>
<!-- nid&#45;1a&#45;out&#45;&gt;nid&#45;22 -->
<g id="edge46" class="edge">
<title>nid&#45;1a&#45;out&#45;&gt;nid&#45;22</title>
<path fill="none" stroke="#333333" d="M538.97,-385.83C760.44,-361.54 1377.9,-293.81 1557.92,-274.06"/>
<polygon fill="#333333" stroke="#333333" points="1558.35,-277.53 1567.91,-272.96 1557.59,-270.57 1558.35,-277.53"/>
</g>
<!-- nid&#45;1a&#45;out&#45;&gt;nid&#45;0b&#45;ampin&#45;26 -->
<g id="edge14" class="edge">
<title>nid&#45;1a&#45;out&#45;&gt;nid&#45;0b&#45;ampin&#45;26</title>
<path fill="none" stroke="#333333" d="M534.21,-428.61C595.19,-455.87 683.64,-494.54 762.11,-525.59 774.87,-530.64 788.78,-535.81 801.74,-540.47"/>
<polygon fill="#333333" stroke="#333333" points="800.82,-543.87 811.42,-543.94 803.18,-537.27 800.82,-543.87"/>
</g>
<!-- nid&#45;1b&#45;out -->
<g id="node21" class="node">
<title>nid&#45;1b&#45;out</title>
<polygon fill="none" stroke="green" points="538.61,-336.59 377.61,-336.59 377.61,-268.59 538.61,-268.59 538.61,-336.59"/>
<text text-anchor="middle" x="458.11" y="-321.39" font-family="Times,serif" font-size="14.00">0x1b</text>
<text text-anchor="middle" x="458.11" y="-306.39" font-family="Times,serif" font-size="14.00">[N/A] Speaker at Ext Rear</text>
<text text-anchor="middle" x="458.11" y="-291.39" font-family="Times,serif" font-size="14.00">Stereo</text>
<text text-anchor="middle" x="458.11" y="-276.39" font-family="Times,serif" font-size="14.00">IN OUT Detect</text>
</g>
<!-- nid&#45;1b&#45;out&#45;&gt;nid&#45;23 -->
<g id="edge55" class="edge">
<title>nid&#45;1b&#45;out&#45;&gt;nid&#45;23</title>
<path fill="none" stroke="gray" stroke-dasharray="5,2" d="M538.97,-309.82C759.44,-329.78 1372.34,-385.27 1555.46,-401.85"/>
<polygon fill="gray" stroke="gray" points="1555.36,-405.36 1565.64,-402.77 1555.99,-398.39 1555.36,-405.36"/>
</g>
<!-- nid&#45;1b&#45;out&#45;&gt;nid&#45;22 -->
<g id="edge47" class="edge">
<title>nid&#45;1b&#45;out&#45;&gt;nid&#45;22</title>
<path fill="none" stroke="gray" stroke-dasharray="5,2" d="M538.68,-270.21C690.62,-212.56 1032.41,-103 1318.89,-156.59 1402.66,-172.26 1493.39,-211.43 1550.38,-239.01"/>
<polygon fill="gray" stroke="gray" points="1549.06,-242.26 1559.58,-243.5 1552.13,-235.97 1549.06,-242.26"/>
</g>
<!-- nid&#45;1b&#45;out&#45;&gt;nid&#45;0b&#45;ampin&#45;27 -->
<g id="edge15" class="edge">
<title>nid&#45;1b&#45;out&#45;&gt;nid&#45;0b&#45;ampin&#45;27</title>
<path fill="none" stroke="#333333" d="M537.37,-336.61C545.77,-340.54 554.15,-344.58 562.11,-348.59 653.26,-394.57 669.3,-419.04 762.11,-461.59 774.58,-467.31 788.4,-472.71 801.35,-477.39"/>
<polygon fill="#333333" stroke="#333333" points="800.45,-480.78 811.04,-480.82 802.78,-474.18 800.45,-480.78"/>
</g>
<!-- nid&#45;1d&#45;out -->
<g id="node22" class="node">
<title>nid&#45;1d&#45;out</title>
<polygon fill="none" stroke="green" points="554.11,-854.59 362.11,-854.59 362.11,-786.59 554.11,-786.59 554.11,-854.59"/>
<text text-anchor="middle" x="458.11" y="-839.39" font-family="Times,serif" font-size="14.00">0x1d</text>
<text text-anchor="middle" x="458.11" y="-824.39" font-family="Times,serif" font-size="14.00">[N/A] Modem Hand at Ext N/A</text>
<text text-anchor="middle" x="458.11" y="-809.39" font-family="Times,serif" font-size="14.00">Mono</text>
<text text-anchor="middle" x="458.11" y="-794.39" font-family="Times,serif" font-size="14.00">IN</text>
</g>
<!-- nid&#45;1d&#45;out&#45;&gt;nid&#45;23 -->
<g id="edge56" class="edge">
<title>nid&#45;1d&#45;out&#45;&gt;nid&#45;23</title>
<path fill="none" stroke="gray" stroke-dasharray="5,2" d="M554.33,-832.3C749.76,-854.58 1188.76,-895.03 1318.89,-826.59 1358.27,-805.88 1514.05,-558.54 1579.06,-453.4"/>
<polygon fill="gray" stroke="gray" points="1582.04,-455.23 1584.32,-444.88 1576.09,-451.55 1582.04,-455.23"/>
</g>
<!-- nid&#45;1d&#45;out&#45;&gt;nid&#45;22 -->
<g id="edge48" class="edge">
<title>nid&#45;1d&#45;out&#45;&gt;nid&#45;22</title>
<path fill="none" stroke="gray" stroke-dasharray="5,2" d="M554.41,-823.56C751.59,-827.93 1196.14,-828.04 1318.89,-745.59 1480.27,-637.2 1403.94,-513.36 1518.89,-356.59 1532.69,-337.78 1550.56,-319.26 1566.65,-304.1"/>
<polygon fill="gray" stroke="gray" points="1569.43,-306.3 1574.39,-296.94 1564.67,-301.16 1569.43,-306.3"/>
</g>
<!-- nid&#45;1d&#45;out&#45;&gt;nid&#45;0b&#45;ampin&#45;29 -->
<g id="edge16" class="edge">
<title>nid&#45;1d&#45;out&#45;&gt;nid&#45;0b&#45;ampin&#45;29</title>
<path fill="none" stroke="#333333" d="M554.22,-787.82C632.07,-761.01 739.1,-724.14 801.08,-702.79"/>
<polygon fill="#333333" stroke="#333333" points="802.31,-706.06 810.62,-699.5 800.03,-699.45 802.31,-706.06"/>
</g>
<!-- nid&#45;0c -->
<g id="node23" class="node">
<title>nid&#45;0c</title>
<polygon fill="none" stroke="black" points="1990.1,-729.59 1969.21,-760.64 1927.43,-760.64 1906.54,-729.59 1927.43,-698.54 1969.21,-698.54 1990.1,-729.59"/>
<text text-anchor="middle" x="1948.32" y="-733.39" font-family="Times,serif" font-size="14.00">0x0c</text>
<text text-anchor="middle" x="1948.32" y="-718.39" font-family="Times,serif" font-size="14.00">Stereo</text>
</g>
<!-- nid&#45;14&#45;in -->
<g id="node34" class="node">
<title>nid&#45;14&#45;in</title>
<polygon fill="none" stroke="green" points="2370.96,-827.59 2207.96,-827.59 2207.96,-759.59 2370.96,-759.59 2370.96,-827.59"/>
<text text-anchor="middle" x="2289.46" y="-812.39" font-family="Times,serif" font-size="14.00">0x14</text>
<text text-anchor="middle" x="2289.46" y="-797.39" font-family="Times,serif" font-size="14.00">[Fixed] Speaker at Int N/A</text>
<text text-anchor="middle" x="2289.46" y="-782.39" font-family="Times,serif" font-size="14.00">Stereo</text>
<text text-anchor="middle" x="2289.46" y="-767.39" font-family="Times,serif" font-size="14.00">OUT EAPD</text>
</g>
<!-- nid&#45;0c&#45;&gt;nid&#45;14&#45;in -->
<g id="edge29" class="edge">
<title>nid&#45;0c&#45;&gt;nid&#45;14&#45;in</title>
<path fill="none" stroke="#333333" d="M1985.61,-736.44C2035.86,-745.92 2128.28,-763.36 2197.86,-776.49"/>
<polygon fill="#333333" stroke="#333333" points="2197.47,-779.98 2207.95,-778.4 2198.77,-773.1 2197.47,-779.98"/>
</g>
<!-- nid&#45;15&#45;in -->
<g id="node35" class="node">
<title>nid&#45;15&#45;in</title>
<polygon fill="none" stroke="green" points="2370.96,-735.59 2207.96,-735.59 2207.96,-667.59 2370.96,-667.59 2370.96,-735.59"/>
<text text-anchor="middle" x="2289.46" y="-720.39" font-family="Times,serif" font-size="14.00">0x15</text>
<text text-anchor="middle" x="2289.46" y="-705.39" font-family="Times,serif" font-size="14.00">[Jack] HP Out at Ext Front</text>
<text text-anchor="middle" x="2289.46" y="-690.39" font-family="Times,serif" font-size="14.00">Stereo</text>
<text text-anchor="middle" x="2289.46" y="-675.39" font-family="Times,serif" font-size="14.00">OUT HP EAPD Detect</text>
</g>
<!-- nid&#45;0c&#45;&gt;nid&#45;15&#45;in -->
<g id="edge31" class="edge">
<title>nid&#45;0c&#45;&gt;nid&#45;15&#45;in</title>
<path fill="none" stroke="gray" stroke-dasharray="5,2" d="M1988.22,-726.38C2038.95,-722.19 2129.25,-714.73 2197.61,-709.09"/>
<polygon fill="gray" stroke="gray" points="2198.28,-712.55 2207.96,-708.24 2197.7,-705.57 2198.28,-712.55"/>
</g>
<!-- nid&#45;16&#45;in -->
<g id="node36" class="node">
<title>nid&#45;16&#45;in</title>
<polygon fill="none" stroke="green" points="2372.96,-643.59 2205.96,-643.59 2205.96,-575.59 2372.96,-575.59 2372.96,-643.59"/>
<text text-anchor="middle" x="2289.46" y="-628.39" font-family="Times,serif" font-size="14.00">0x16</text>
<text text-anchor="middle" x="2289.46" y="-613.39" font-family="Times,serif" font-size="14.00">[Jack] Line Out at Ext Rear</text>
<text text-anchor="middle" x="2289.46" y="-598.39" font-family="Times,serif" font-size="14.00">Stereo</text>
<text text-anchor="middle" x="2289.46" y="-583.39" font-family="Times,serif" font-size="14.00">OUT HP EAPD Detect</text>
</g>
<!-- nid&#45;0c&#45;&gt;nid&#45;16&#45;in -->
<g id="edge33" class="edge">
<title>nid&#45;0c&#45;&gt;nid&#45;16&#45;in</title>
<path fill="none" stroke="#333333" d="M1982.46,-717.86C2031.49,-700.52 2125.19,-667.36 2196.04,-642.29"/>
<polygon fill="#333333" stroke="#333333" points="2197.62,-645.44 2205.88,-638.81 2195.29,-638.84 2197.62,-645.44"/>
</g>
<!-- nid&#45;18&#45;in -->
<g id="node37" class="node">
<title>nid&#45;18&#45;in</title>
<polygon fill="none" stroke="green" points="2361.96,-551.59 2216.96,-551.59 2216.96,-483.59 2361.96,-483.59 2361.96,-551.59"/>
<text text-anchor="middle" x="2289.46" y="-536.39" font-family="Times,serif" font-size="14.00">0x18</text>
<text text-anchor="middle" x="2289.46" y="-521.39" font-family="Times,serif" font-size="14.00">[Jack] Mic at Ext Front</text>
<text text-anchor="middle" x="2289.46" y="-506.39" font-family="Times,serif" font-size="14.00">Stereo</text>
<text text-anchor="middle" x="2289.46" y="-491.39" font-family="Times,serif" font-size="14.00">IN OUT Detect</text>
</g>
<!-- nid&#45;0c&#45;&gt;nid&#45;18&#45;in -->
<g id="edge37" class="edge">
<title>nid&#45;0c&#45;&gt;nid&#45;18&#45;in</title>
<path fill="none" stroke="#333333" d="M1976.96,-709.56C2022.14,-677.18 2115.09,-612.09 2197.96,-563.59 2202.03,-561.21 2206.23,-558.83 2210.49,-556.47"/>
<polygon fill="#333333" stroke="#333333" points="2212.21,-559.52 2219.32,-551.66 2208.86,-553.37 2212.21,-559.52"/>
</g>
<!-- nid&#45;1b&#45;in -->
<g id="node40" class="node">
<title>nid&#45;1b&#45;in</title>
<polygon fill="none" stroke="green" points="2369.96,-919.59 2208.96,-919.59 2208.96,-851.59 2369.96,-851.59 2369.96,-919.59"/>
<text text-anchor="middle" x="2289.46" y="-904.39" font-family="Times,serif" font-size="14.00">0x1b</text>
<text text-anchor="middle" x="2289.46" y="-889.39" font-family="Times,serif" font-size="14.00">[N/A] Speaker at Ext Rear</text>
<text text-anchor="middle" x="2289.46" y="-874.39" font-family="Times,serif" font-size="14.00">Stereo</text>
<text text-anchor="middle" x="2289.46" y="-859.39" font-family="Times,serif" font-size="14.00">IN OUT Detect</text>
</g>
<!-- nid&#45;0c&#45;&gt;nid&#45;1b&#45;in -->
<g id="edge41" class="edge">
<title>nid&#45;0c&#45;&gt;nid&#45;1b&#45;in</title>
<path fill="none" stroke="#333333" d="M1980.62,-743.99C2031.17,-767.24 2132.47,-813.84 2205.07,-847.23"/>
<polygon fill="#333333" stroke="#333333" points="2203.67,-850.44 2214.22,-851.44 2206.6,-844.08 2203.67,-850.44"/>
</g>
<!-- nid&#45;0c&#45;ampin&#45;2&#45;&gt;nid&#45;0c -->
<g id="edge17" class="edge">
<title>nid&#45;0c&#45;ampin&#45;2&#45;&gt;nid&#45;0c</title>
<path fill="none" stroke="#0000ff" d="M1652.88,-778.44C1717.87,-767.66 1840.25,-747.35 1904.87,-736.63"/>
<polygon fill="#0000ff" stroke="#0000ff" points="1905.53,-738.3 1910.18,-735.75 1904.96,-734.84 1905.53,-738.3"/>
</g>
<!-- nid&#45;0c&#45;ampin&#45;11&#45;&gt;nid&#45;0c -->
<g id="edge18" class="edge">
<title>nid&#45;0c&#45;ampin&#45;11&#45;&gt;nid&#45;0c</title>
<path fill="none" stroke="#c8c8c8" d="M1681.78,-723.3C1748.37,-724.87 1845.31,-727.17 1901.78,-728.51"/>
<polygon fill="#c8c8c8" stroke="#c8c8c8" points="1902.08,-730.27 1907.12,-728.64 1902.16,-726.77 1902.08,-730.27"/>
</g>
<!-- nid&#45;0d -->
<g id="node26" class="node">
<title>nid&#45;0d</title>
<polygon fill="none" stroke="black" points="1990.1,-643.59 1969.21,-674.64 1927.43,-674.64 1906.54,-643.59 1927.43,-612.54 1969.21,-612.54 1990.1,-643.59"/>
<text text-anchor="middle" x="1948.32" y="-647.39" font-family="Times,serif" font-size="14.00">0x0d</text>
<text text-anchor="middle" x="1948.32" y="-632.39" font-family="Times,serif" font-size="14.00">Stereo</text>
</g>
<!-- nid&#45;0d&#45;&gt;nid&#45;14&#45;in -->
<g id="edge30" class="edge">
<title>nid&#45;0d&#45;&gt;nid&#45;14&#45;in</title>
<path fill="none" stroke="gray" stroke-dasharray="5,2" d="M1980.92,-657.57C2030.81,-679.63 2129.55,-723.31 2201.74,-755.23"/>
<polygon fill="gray" stroke="gray" points="2200.73,-758.62 2211.3,-759.46 2203.57,-752.21 2200.73,-758.62"/>
</g>
<!-- nid&#45;0d&#45;&gt;nid&#45;15&#45;in -->
<g id="edge32" class="edge">
<title>nid&#45;0d&#45;&gt;nid&#45;15&#45;in</title>
<path fill="none" stroke="#333333" d="M1985.94,-649.85C2036.22,-658.45 2128.29,-674.2 2197.71,-686.07"/>
<polygon fill="#333333" stroke="#333333" points="2197.33,-689.55 2207.78,-687.79 2198.51,-682.66 2197.33,-689.55"/>
</g>
<!-- nid&#45;0d&#45;&gt;nid&#45;16&#45;in -->
<g id="edge34" class="edge">
<title>nid&#45;0d&#45;&gt;nid&#45;16&#45;in</title>
<path fill="none" stroke="gray" stroke-dasharray="5,2" d="M1987.56,-639.76C2037.66,-634.73 2127.14,-625.76 2195.54,-618.9"/>
<polygon fill="gray" stroke="gray" points="2196.3,-622.35 2205.9,-617.87 2195.61,-615.38 2196.3,-622.35"/>
</g>
<!-- nid&#45;0d&#45;&gt;nid&#45;18&#45;in -->
<g id="edge38" class="edge">
<title>nid&#45;0d&#45;&gt;nid&#45;18&#45;in</title>
<path fill="none" stroke="gray" stroke-dasharray="5,2" d="M1982.15,-631.39C2033.69,-612.24 2135.15,-574.55 2207.16,-547.79"/>
<polygon fill="gray" stroke="gray" points="2208.52,-551.02 2216.68,-544.26 2206.08,-544.46 2208.52,-551.02"/>
</g>
<!-- nid&#45;0d&#45;&gt;nid&#45;1b&#45;in -->
<g id="edge42" class="edge">
<title>nid&#45;0d&#45;&gt;nid&#45;1b&#45;in</title>
<path fill="none" stroke="gray" stroke-dasharray="5,2" d="M1975.58,-665.38C2029.7,-710.08 2152.35,-810.42 2197.96,-839.59 2201.55,-841.89 2205.27,-844.16 2209.07,-846.39"/>
<polygon fill="gray" stroke="gray" points="2207.61,-849.59 2218.02,-851.53 2211.09,-843.52 2207.61,-849.59"/>
</g>
<!-- nid&#45;0d&#45;ampin&#45;3&#45;&gt;nid&#45;0d -->
<g id="edge21" class="edge">
<title>nid&#45;0d&#45;ampin&#45;3&#45;&gt;nid&#45;0d</title>
<path fill="none" stroke="#0000ff" d="M1681.78,-649.88C1748.37,-648.3 1845.31,-646.01 1901.78,-644.67"/>
<polygon fill="#0000ff" stroke="#0000ff" points="1902.16,-646.41 1907.12,-644.54 1902.08,-642.91 1902.16,-646.41"/>
</g>
<!-- nid&#45;0d&#45;ampin&#45;11&#45;&gt;nid&#45;0d -->
<g id="edge22" class="edge">
<title>nid&#45;0d&#45;ampin&#45;11&#45;&gt;nid&#45;0d</title>
<path fill="none" stroke="#c8c8c8" d="M1652.88,-594.74C1717.87,-605.52 1840.25,-625.83 1904.87,-636.55"/>
<polygon fill="#c8c8c8" stroke="#c8c8c8" points="1904.96,-638.33 1910.18,-637.43 1905.53,-634.88 1904.96,-638.33"/>
</g>
<!-- nid&#45;0f -->
<g id="node29" class="node">
<title>nid&#45;0f</title>
<polygon fill="none" stroke="black" points="1988.97,-941.59 1968.65,-972.64 1927.99,-972.64 1907.67,-941.59 1927.99,-910.54 1968.65,-910.54 1988.97,-941.59"/>
<text text-anchor="middle" x="1948.32" y="-945.39" font-family="Times,serif" font-size="14.00">0x0f</text>
<text text-anchor="middle" x="1948.32" y="-930.39" font-family="Times,serif" font-size="14.00">Mono</text>
</g>
<!-- nid&#45;0f&#45;ampin&#45;2&#45;&gt;nid&#45;0f -->
<g id="edge25" class="edge">
<title>nid&#45;0f&#45;ampin&#45;2&#45;&gt;nid&#45;0f</title>
<path fill="none" stroke="#c8c8c8" d="M1663.64,-968.48C1730.62,-962.13 1843.6,-951.42 1904.82,-945.62"/>
<polygon fill="#c8c8c8" stroke="#c8c8c8" points="1905.04,-947.36 1909.85,-945.14 1904.71,-943.87 1905.04,-947.36"/>
</g>
<!-- nid&#45;0f&#45;ampin&#45;3&#45;&gt;nid&#45;0f -->
<g id="edge26" class="edge">
<title>nid&#45;0f&#45;ampin&#45;3&#45;&gt;nid&#45;0f</title>
<path fill="none" stroke="#0000ff" d="M1663.64,-914.7C1730.62,-921.05 1843.6,-931.76 1904.82,-937.56"/>
<polygon fill="#0000ff" stroke="#0000ff" points="1904.71,-939.31 1909.85,-938.04 1905.04,-935.82 1904.71,-939.31"/>
</g>
<!-- nid&#45;12&#45;out -->
<g id="node32" class="node">
<title>nid&#45;12&#45;out</title>
<polygon fill="none" stroke="green" points="1301.39,-112.59 1159.39,-112.59 1159.39,-44.59 1301.39,-44.59 1301.39,-112.59"/>
<text text-anchor="middle" x="1230.39" y="-97.39" font-family="Times,serif" font-size="14.00">0x12</text>
<text text-anchor="middle" x="1230.39" y="-82.39" font-family="Times,serif" font-size="14.00">[Fixed] Mic at Int N/A</text>
<text text-anchor="middle" x="1230.39" y="-67.39" font-family="Times,serif" font-size="14.00">Stereo</text>
<text text-anchor="middle" x="1230.39" y="-52.39" font-family="Times,serif" font-size="14.00">IN</text>
</g>
<!-- nid&#45;12&#45;out&#45;&gt;nid&#45;22 -->
<g id="edge50" class="edge">
<title>nid&#45;12&#45;out&#45;&gt;nid&#45;22</title>
<path fill="none" stroke="gray" stroke-dasharray="5,2" d="M1299.12,-112.78C1370.88,-149 1482.96,-205.58 1550.49,-239.66"/>
<polygon fill="gray" stroke="gray" points="1549.21,-242.94 1559.71,-244.32 1552.36,-236.69 1549.21,-242.94"/>
</g>
<!-- nid&#45;13&#45;out -->
<g id="node33" class="node">
<title>nid&#45;13&#45;out</title>
<polygon fill="none" stroke="green" points="1310.89,-236.59 1149.89,-236.59 1149.89,-168.59 1310.89,-168.59 1310.89,-236.59"/>
<text text-anchor="middle" x="1230.39" y="-221.39" font-family="Times,serif" font-size="14.00">0x13</text>
<text text-anchor="middle" x="1230.39" y="-206.39" font-family="Times,serif" font-size="14.00">[N/A] Speaker at Ext Rear</text>
<text text-anchor="middle" x="1230.39" y="-191.39" font-family="Times,serif" font-size="14.00">Stereo</text>
<text text-anchor="middle" x="1230.39" y="-176.39" font-family="Times,serif" font-size="14.00">IN</text>
</g>
<!-- nid&#45;13&#45;out&#45;&gt;nid&#45;22 -->
<g id="edge51" class="edge">
<title>nid&#45;13&#45;out&#45;&gt;nid&#45;22</title>
<path fill="none" stroke="gray" stroke-dasharray="5,2" d="M1311.22,-216.59C1384.5,-229.44 1491.04,-248.12 1554.48,-259.24"/>
<polygon fill="gray" stroke="gray" points="1554.21,-262.75 1564.66,-261.03 1555.42,-255.85 1554.21,-262.75"/>
</g>
<!-- nid&#45;18&#45;ampout -->
<g id="node38" class="node">
<title>nid&#45;18&#45;ampout</title>
<polygon fill="none" stroke="#c8c8c8" points="2642.96,-517.59 2602.46,-535.59 2602.46,-499.59 2642.96,-517.59"/>
</g>
<!-- nid&#45;18&#45;in&#45;&gt;nid&#45;18&#45;ampout -->
<g id="edge35" class="edge">
<title>nid&#45;18&#45;in&#45;&gt;nid&#45;18&#45;ampout</title>
<path fill="none" stroke="#c8c8c8" d="M2362.08,-517.59C2438.15,-517.59 2553.35,-517.59 2597.18,-517.59"/>
<polygon fill="#c8c8c8" stroke="#c8c8c8" points="2597.41,-519.34 2602.41,-517.59 2597.41,-515.84 2597.41,-519.34"/>
</g>
<!-- nid&#45;18&#45;ampin -->
<g id="node39" class="node">
<title>nid&#45;18&#45;ampin</title>
<polygon fill="none" stroke="#0000ff" points="108.05,-728.59 67.55,-746.59 67.55,-710.59 108.05,-728.59"/>
</g>
<!-- nid&#45;18&#45;ampin&#45;&gt;nid&#45;18&#45;out -->
<g id="edge36" class="edge">
<title>nid&#45;18&#45;ampin&#45;&gt;nid&#45;18&#45;out</title>
<path fill="none" stroke="#0000ff" d="M108.13,-728.59C163.67,-728.59 295.48,-728.59 380.27,-728.59"/>
<polygon fill="#0000ff" stroke="#0000ff" points="380.28,-730.34 385.28,-728.59 380.28,-726.84 380.28,-730.34"/>
</g>
<!-- nid&#45;1b&#45;ampout -->
<g id="node41" class="node">
<title>nid&#45;1b&#45;ampout</title>
<polygon fill="none" stroke="#c8c8c8" points="2642.96,-885.59 2602.46,-903.59 2602.46,-867.59 2642.96,-885.59"/>
</g>
<!-- nid&#45;1b&#45;in&#45;&gt;nid&#45;1b&#45;ampout -->
<g id="edge39" class="edge">
<title>nid&#45;1b&#45;in&#45;&gt;nid&#45;1b&#45;ampout</title>
<path fill="none" stroke="#c8c8c8" d="M2370.26,-885.59C2446.2,-885.59 2554.97,-885.59 2597.23,-885.59"/>
<polygon fill="#c8c8c8" stroke="#c8c8c8" points="2597.28,-887.34 2602.28,-885.59 2597.28,-883.84 2597.28,-887.34"/>
</g>
<!-- nid&#45;1b&#45;ampin -->
<g id="node42" class="node">
<title>nid&#45;1b&#45;ampin</title>
<polygon fill="none" stroke="#0000ff" points="108.05,-302.59 67.55,-320.59 67.55,-284.59 108.05,-302.59"/>
</g>
<!-- nid&#45;1b&#45;ampin&#45;&gt;nid&#45;1b&#45;out -->
<g id="edge40" class="edge">
<title>nid&#45;1b&#45;ampin&#45;&gt;nid&#45;1b&#45;out</title>
<path fill="none" stroke="#0000ff" d="M108.13,-302.59C161.96,-302.59 287.44,-302.59 372.31,-302.59"/>
<polygon fill="#0000ff" stroke="#0000ff" points="372.33,-304.34 377.33,-302.59 372.33,-300.84 372.33,-304.34"/>
</g>
</g>
</svg>
